<svg width="20" height="20" viewBox="0 0 20 20" fill="none" xmlns="http://www.w3.org/2000/svg">
<g clip-path="url(#clip0_0_276)">
<path fill-rule="evenodd" clip-rule="evenodd" d="M0.833313 2.365C0.833313 1.95877 0.994685 1.56919 1.28193 1.28195C1.56917 0.994702 1.95876 0.83333 2.36498 0.83333H17.6333C17.8346 0.833001 18.034 0.872383 18.2201 0.949219C18.4062 1.02606 18.5753 1.13884 18.7177 1.28111C18.8601 1.42338 18.9731 1.59235 19.0501 1.77834C19.1272 1.96433 19.1668 2.16368 19.1666 2.365V17.6333C19.1669 17.8347 19.1274 18.0341 19.0505 18.2202C18.9735 18.4063 18.8607 18.5753 18.7183 18.7178C18.576 18.8602 18.407 18.9731 18.2209 19.0502C18.0349 19.1272 17.8355 19.1668 17.6341 19.1667H2.36498C2.16377 19.1667 1.96453 19.127 1.77864 19.05C1.59276 18.973 1.42387 18.8601 1.28163 18.7178C1.13939 18.5754 1.02659 18.4065 0.949665 18.2206C0.872741 18.0346 0.833204 17.8354 0.833313 17.6342V2.365ZM8.08998 7.82333H10.5725V9.07C10.9308 8.35333 11.8475 7.70833 13.225 7.70833C15.8658 7.70833 16.4916 9.13583 16.4916 11.755V16.6067H13.8191V12.3517C13.8191 10.86 13.4608 10.0183 12.5508 10.0183C11.2883 10.0183 10.7633 10.9258 10.7633 12.3517V16.6067H8.08998V7.82333ZM3.50665 16.4925H6.17998V7.70833H3.50665V16.4917V16.4925ZM6.56248 4.84333C6.56752 5.07222 6.52679 5.29982 6.44268 5.51276C6.35857 5.7257 6.23277 5.91969 6.07267 6.08336C5.91257 6.24702 5.7214 6.37706 5.51036 6.46584C5.29932 6.55461 5.07268 6.60035 4.84373 6.60035C4.61478 6.60035 4.38814 6.55461 4.1771 6.46584C3.96606 6.37706 3.77489 6.24702 3.61479 6.08336C3.45469 5.91969 3.32889 5.7257 3.24478 5.51276C3.16067 5.29982 3.11994 5.07222 3.12498 4.84333C3.13487 4.39404 3.3203 3.96649 3.64155 3.65224C3.9628 3.33798 4.39433 3.16201 4.84373 3.16201C5.29313 3.16201 5.72466 3.33798 6.04591 3.65224C6.36716 3.96649 6.55259 4.39404 6.56248 4.84333Z" fill="black"/>
</g>
<defs>
<clipPath id="clip0_0_276">
<rect width="20" height="20" fill="white"/>
</clipPath>
</defs>
</svg>
